<?xml version="1.0" encoding="UTF-8" standalone="no"?>
<!DOCTYPE svg PUBLIC "-//W3C//DTD SVG 1.1//EN" "http://www.w3.org/Graphics/SVG/1.1/DTD/svg11.dtd">
<svg width="100%" height="100%" viewBox="0 0 19 23" version="1.1" xmlns="http://www.w3.org/2000/svg" xmlns:xlink="http://www.w3.org/1999/xlink" xml:space="preserve" xmlns:serif="http://www.serif.com/" style="fill-rule:evenodd;clip-rule:evenodd;stroke-linejoin:round;stroke-miterlimit:2;">
    <g transform="matrix(0.0215008,0,0,0.0215008,-12.4008,-9.04043)">
        <g transform="matrix(1,0,0,1,-1.81899e-12,-16.1413)">
            <path d="M951.914,716.534C952.428,716.588 952.962,716.641 953.514,716.693C955.675,716.87 958.114,717.069 960.773,717.288C963.434,717.476 966.315,717.645 969.367,717.783C972.415,717.977 975.641,717.967 978.964,718.117C982.295,718.146 985.737,718.176 989.231,718.206C992.73,718.149 996.281,718.224 999.835,718.056C1003.39,717.947 1006.94,717.947 1010.44,717.724C1013.93,717.499 1017.38,717.498 1020.7,717.228C1024.03,717.029 1027.25,716.837 1030.31,716.654C1033.36,716.42 1036.24,716.199 1038.91,715.995C1044.25,715.655 1048.69,715.217 1051.81,714.973C1051.93,714.963 1052.04,714.955 1052.17,714.944C1108.63,693.007 1164.24,663.574 1202.49,615.682C1229.57,581.774 1246.01,536.809 1244.22,493.674C1242.82,460.009 1214.54,434.073 1181.92,436.837C1145.71,439.906 1048.73,462.586 1000,483.155C951.267,462.586 854.291,439.906 818.08,436.837C785.455,434.073 757.183,460.009 755.783,493.674C753.991,536.809 770.429,581.774 797.512,615.682C836.686,664.729 894.059,694.432 951.914,716.534Z" style="fill:white;fill-rule:nonzero;"/>
        </g>
        <g transform="matrix(0.24,0,0,0.208725,0.000193287,93.3254)">
            <path d="M5737.21,4444.58C5585.04,4139.43 5364.58,3875.57 5126.38,3635.77C4890.17,3397.99 4634.46,3180.77 4362.83,2987.19C4365.45,2986.19 4368.08,2985.13 4370.71,2984.12C4367.29,2984.78 4363.67,2985.48 4359.79,2986.22C4350.87,2988.06 4340.79,2989.82 4329.71,2991.35C4318.62,2992.95 4306.67,2994.7 4293.96,2996.53C4281.21,2997.9 4267.75,2999.34 4253.88,3000.83C4239.96,3002.32 4225.5,3003.16 4210.83,3004.1C4196.17,3005.2 4181.21,3005.4 4166.29,3005.98C4151.36,3006.52 4136.4,3006.05 4121.7,3006.12C4106.99,3005.99 4092.51,3005.12 4078.52,3004.53C4064.54,3003.55 4051.02,3002.72 4038.25,3001.22C4025.46,3000.03 4013.42,2998.37 4002.32,2996.7C3991.23,2995.13 3981.12,2993.19 3972.2,2991.38C3970.19,2990.97 3968.26,2990.57 3966.37,2990.17C3696.28,3183 3441.96,3399.2 3206.95,3635.77C2968.73,3875.57 2748.3,4139.43 2596.14,4444.58C2443.99,4749.71 2363.31,5100.17 2413.93,5439.17C2464.55,5778.17 2657.59,6101.71 2952.03,6262.25C3241.55,6420.17 3823.29,6526.17 4166.67,6512.92C4510.04,6526.17 5091.79,6420.17 5381.29,6262.25C5675.75,6101.71 5868.79,5778.17 5919.42,5439.17C5970.04,5100.17 5889.33,4749.71 5737.21,4444.58ZM4636.58,4882C4582.62,4804.08 4488.88,4737 4355.17,4680.83L4271,4645.33L4194.75,4613.17C4141.14,4590.21 4097.15,4569.96 4062.36,4552.29C4030.04,4535.92 4005.62,4521.75 3989.53,4509.92C3956.12,4485.42 3930.04,4454.92 3911.33,4418.54C3892.6,4382.12 3883.25,4341.79 3883.25,4297.46C3883.25,4225.5 3909.33,4166.52 3961.47,4120.63C3989.45,4096 4023.21,4078.2 4062.36,4066.78C4096.15,4056.94 4133.91,4051.78 4176.04,4051.78C4206.42,4051.78 4238.08,4054.36 4271,4059.43C4305.67,4064.76 4341.75,4072.87 4379.25,4083.83C4452.29,4105.2 4506.67,4127.36 4542.33,4150.3L4621.21,3943.78C4550.5,3891.59 4433.67,3861.27 4271,3852.66L4271,3726.82C4271,3669.21 4224.29,3622.5 4166.67,3622.5C4109.05,3622.5 4062.36,3669.21 4062.36,3726.82L4062.36,3856.89C3947.78,3872 3850.6,3912.36 3770.96,3978.2C3667.55,4063.65 3615.87,4171.29 3615.87,4301.04C3615.87,4407.83 3642.39,4499.25 3695.43,4575.21C3748.43,4651.17 3841.81,4716.83 3975.49,4772.21L4062.36,4808.17L4133.25,4837.5C4186.75,4859.92 4232.67,4881.67 4271,4902.75C4334.12,4937.58 4376.71,4970.58 4398.62,5001.88C4433.83,5052.12 4451.42,5106.5 4451.42,5165.08C4451.42,5243.42 4419.79,5307.92 4356.5,5358.54C4331.29,5378.71 4302.67,5394.67 4271,5406.79C4223.08,5425.12 4167.92,5434.5 4105.18,5434.5C4091.35,5434.5 4077.05,5433.83 4062.36,5432.62C4014.55,5428.71 3962.23,5418.5 3905.3,5401.83C3830.89,5380.08 3768.72,5353 3718.83,5320.54L3621.22,5538.92C3743.25,5611.17 3890.33,5647.46 4062.36,5648L4062.36,5771.33C4062.36,5828.92 4109.05,5875.62 4166.67,5875.62C4224.29,5875.62 4271,5828.92 4271,5771.33L4271,5629.17C4376.46,5607.88 4466.25,5568.71 4540.33,5511.62C4658.42,5420.67 4717.46,5309.88 4717.46,5179.29C4717.46,5059.04 4690.5,4959.96 4636.58,4882Z" style="fill:white;"/>
        </g>
    </g>
</svg>
