<?xml version="1.0" encoding="UTF-8" standalone="no"?>
<!DOCTYPE svg PUBLIC "-//W3C//DTD SVG 1.1//EN" "http://www.w3.org/Graphics/SVG/1.1/DTD/svg11.dtd">
<svg width="100%" height="100%" viewBox="0 0 114 15" version="1.1" xmlns="http://www.w3.org/2000/svg" xmlns:xlink="http://www.w3.org/1999/xlink" xml:space="preserve" xmlns:serif="http://www.serif.com/" style="fill-rule:evenodd;clip-rule:evenodd;stroke-linejoin:round;stroke-miterlimit:2;">
    <g transform="matrix(1.21704,0,0,1.21704,-334.204,-190.448)">
        <g transform="matrix(1,0,0,1,125.044,76.6359)">
            <path d="M156.508,83.149C156.508,83.685 156.384,84.171 156.136,84.607C155.888,85.043 155.522,85.389 155.038,85.645C154.554,85.901 153.968,86.029 153.28,86.029L152.224,86.029L152.224,88.729L149.56,88.729L149.56,80.233L153.28,80.233C154.32,80.233 155.118,80.497 155.674,81.025C156.23,81.553 156.508,82.261 156.508,83.149ZM152.98,83.929C153.532,83.929 153.808,83.669 153.808,83.149C153.808,82.629 153.532,82.369 152.98,82.369L152.224,82.369L152.224,83.929L152.98,83.929Z" style="fill:rgb(251,251,251);fill-rule:nonzero;"/>
            <g transform="matrix(1,0,0,1,3,0)">
                <path d="M161.068,85.345C161.068,84.641 161.214,84.027 161.506,83.503C161.798,82.979 162.206,82.577 162.73,82.297C163.254,82.017 163.852,81.877 164.524,81.877C165.404,81.877 166.146,82.125 166.75,82.621C167.354,83.117 167.736,83.805 167.896,84.685L165.076,84.685C164.972,84.333 164.768,84.157 164.464,84.157C164.248,84.157 164.078,84.257 163.954,84.457C163.83,84.657 163.768,84.953 163.768,85.345C163.768,85.737 163.83,86.033 163.954,86.233C164.078,86.433 164.248,86.533 164.464,86.533C164.768,86.533 164.972,86.357 165.076,86.005L167.896,86.005C167.736,86.885 167.354,87.573 166.75,88.069C166.146,88.565 165.404,88.813 164.524,88.813C163.852,88.813 163.254,88.673 162.73,88.393C162.206,88.113 161.798,87.711 161.506,87.187C161.214,86.663 161.068,86.049 161.068,85.345Z" style="fill:rgb(251,251,251);fill-rule:nonzero;"/>
            </g>
            <g transform="matrix(1,0,0,1,3,0)">
                <path d="M173.068,88.729L171.4,86.029L171.4,88.729L168.736,88.729L168.736,79.849L171.4,79.849L171.4,84.493L173.092,81.961L176.188,81.961L173.656,85.369L176.248,88.729L173.068,88.729Z" style="fill:rgb(251,251,251);fill-rule:nonzero;"/>
            </g>
            <g transform="matrix(1,0,0,1,3,0)">
                <path d="M183.4,85.285C183.4,85.469 183.388,85.645 183.364,85.813L179.08,85.813C179.12,86.397 179.364,86.689 179.812,86.689C180.1,86.689 180.308,86.557 180.436,86.293L183.256,86.293C183.16,86.773 182.958,87.203 182.65,87.583C182.342,87.963 181.954,88.263 181.486,88.483C181.018,88.703 180.504,88.813 179.944,88.813C179.272,88.813 178.674,88.673 178.15,88.393C177.626,88.113 177.218,87.711 176.926,87.187C176.634,86.663 176.488,86.049 176.488,85.345C176.488,84.641 176.634,84.027 176.926,83.503C177.218,82.979 177.626,82.577 178.15,82.297C178.674,82.017 179.272,81.877 179.944,81.877C180.616,81.877 181.214,82.015 181.738,82.291C182.262,82.567 182.67,82.961 182.962,83.473C183.254,83.985 183.4,84.589 183.4,85.285ZM180.7,84.649C180.7,84.425 180.628,84.255 180.484,84.139C180.34,84.023 180.16,83.965 179.944,83.965C179.472,83.965 179.196,84.193 179.116,84.649L180.7,84.649Z" style="fill:rgb(251,251,251);fill-rule:nonzero;"/>
            </g>
            <g transform="matrix(1,0,0,1,3,0)">
                <path d="M188.452,86.461L188.452,88.729L187.444,88.729C185.588,88.729 184.66,87.805 184.66,85.957L184.66,84.181L183.82,84.181L183.82,81.961L184.66,81.961L184.66,80.329L187.324,80.329L187.324,81.961L188.428,81.961L188.428,84.181L187.324,84.181L187.324,86.005C187.324,86.165 187.362,86.281 187.438,86.353C187.514,86.425 187.64,86.461 187.816,86.461L188.452,86.461Z" style="fill:rgb(251,251,251);fill-rule:nonzero;"/>
            </g>
            <g transform="matrix(1,0,0,1,3,0)">
                <path d="M191.272,84.469C191.272,83.629 191.442,82.881 191.782,82.225C192.122,81.569 192.608,81.059 193.24,80.695C193.872,80.331 194.616,80.149 195.472,80.149C196.208,80.149 196.866,80.287 197.446,80.563C198.026,80.839 198.498,81.229 198.862,81.733C199.226,82.237 199.468,82.825 199.588,83.497L196.78,83.497C196.652,83.217 196.47,82.999 196.234,82.843C195.998,82.687 195.728,82.609 195.424,82.609C194.976,82.609 194.622,82.777 194.362,83.113C194.102,83.449 193.972,83.901 193.972,84.469C193.972,85.037 194.102,85.489 194.362,85.825C194.622,86.161 194.976,86.329 195.424,86.329C195.728,86.329 195.998,86.251 196.234,86.095C196.47,85.939 196.652,85.721 196.78,85.441L199.588,85.441C199.468,86.113 199.226,86.701 198.862,87.205C198.498,87.709 198.026,88.099 197.446,88.375C196.866,88.651 196.208,88.789 195.472,88.789C194.616,88.789 193.872,88.607 193.24,88.243C192.608,87.879 192.122,87.369 191.782,86.713C191.442,86.057 191.272,85.309 191.272,84.469Z" style="fill:rgb(251,251,251);fill-rule:nonzero;"/>
            </g>
            <g transform="matrix(1,0,0,1,3,0)">
                <path d="M205.288,81.913C206.064,81.913 206.67,82.173 207.106,82.693C207.542,83.213 207.76,83.917 207.76,84.805L207.76,88.729L205.108,88.729L205.108,85.141C205.108,84.821 205.022,84.567 204.85,84.379C204.678,84.191 204.448,84.097 204.16,84.097C203.864,84.097 203.632,84.191 203.464,84.379C203.296,84.567 203.212,84.821 203.212,85.141L203.212,88.729L200.548,88.729L200.548,79.849L203.212,79.849L203.212,82.993C203.42,82.673 203.698,82.413 204.046,82.213C204.394,82.013 204.808,81.913 205.288,81.913Z" style="fill:rgb(251,251,251);fill-rule:nonzero;"/>
            </g>
            <g transform="matrix(1,0,0,1,3,0)">
                <path d="M208.552,85.345C208.552,84.633 208.674,84.015 208.918,83.491C209.162,82.967 209.496,82.567 209.92,82.291C210.344,82.015 210.82,81.877 211.348,81.877C211.788,81.877 212.168,81.967 212.488,82.147C212.808,82.327 213.052,82.573 213.22,82.885L213.22,81.961L215.872,81.961L215.872,88.729L213.22,88.729L213.22,87.805C213.052,88.117 212.808,88.363 212.488,88.543C212.168,88.723 211.788,88.813 211.348,88.813C210.82,88.813 210.344,88.675 209.92,88.399C209.496,88.123 209.162,87.723 208.918,87.199C208.674,86.675 208.552,86.057 208.552,85.345ZM213.22,85.345C213.22,84.985 213.128,84.705 212.944,84.505C212.76,84.305 212.524,84.205 212.236,84.205C211.948,84.205 211.712,84.305 211.528,84.505C211.344,84.705 211.252,84.985 211.252,85.345C211.252,85.705 211.344,85.985 211.528,86.185C211.712,86.385 211.948,86.485 212.236,86.485C212.524,86.485 212.76,86.385 212.944,86.185C213.128,85.985 213.22,85.705 213.22,85.345Z" style="fill:rgb(251,251,251);fill-rule:nonzero;"/>
            </g>
            <g transform="matrix(1,0,0,1,3,0)">
                <path d="M221.812,81.913C222.588,81.913 223.194,82.173 223.63,82.693C224.066,83.213 224.284,83.917 224.284,84.805L224.284,88.729L221.632,88.729L221.632,85.141C221.632,84.821 221.546,84.567 221.374,84.379C221.202,84.191 220.972,84.097 220.684,84.097C220.388,84.097 220.156,84.191 219.988,84.379C219.82,84.567 219.736,84.821 219.736,85.141L219.736,88.729L217.072,88.729L217.072,81.961L219.736,81.961L219.736,82.993C219.944,82.673 220.222,82.413 220.57,82.213C220.918,82.013 221.332,81.913 221.812,81.913Z" style="fill:rgb(251,251,251);fill-rule:nonzero;"/>
            </g>
            <g transform="matrix(1,0,0,1,3,0)">
                <path d="M227.872,81.877C228.312,81.877 228.692,81.967 229.012,82.147C229.332,82.327 229.576,82.573 229.744,82.885L229.744,81.961L232.396,81.961L232.396,88.609C232.396,89.241 232.28,89.817 232.048,90.337C231.816,90.857 231.442,91.273 230.926,91.585C230.41,91.897 229.748,92.053 228.94,92.053C227.852,92.053 226.99,91.799 226.354,91.291C225.718,90.783 225.356,90.093 225.268,89.221L227.884,89.221C227.956,89.573 228.244,89.749 228.748,89.749C229.06,89.749 229.304,89.669 229.48,89.509C229.656,89.349 229.744,89.049 229.744,88.609L229.744,87.805C229.576,88.117 229.332,88.363 229.012,88.543C228.692,88.723 228.312,88.813 227.872,88.813C227.344,88.813 226.868,88.675 226.444,88.399C226.02,88.123 225.686,87.723 225.442,87.199C225.198,86.675 225.076,86.057 225.076,85.345C225.076,84.633 225.198,84.015 225.442,83.491C225.686,82.967 226.02,82.567 226.444,82.291C226.868,82.015 227.344,81.877 227.872,81.877ZM229.744,85.345C229.744,84.985 229.652,84.705 229.468,84.505C229.284,84.305 229.048,84.205 228.76,84.205C228.472,84.205 228.236,84.305 228.052,84.505C227.868,84.705 227.776,84.985 227.776,85.345C227.776,85.705 227.868,85.985 228.052,86.185C228.236,86.385 228.472,86.485 228.76,86.485C229.048,86.485 229.284,86.385 229.468,86.185C229.652,85.985 229.744,85.705 229.744,85.345Z" style="fill:rgb(251,251,251);fill-rule:nonzero;"/>
            </g>
            <g transform="matrix(1,0,0,1,3,0)">
                <path d="M240.148,85.285C240.148,85.469 240.136,85.645 240.112,85.813L235.828,85.813C235.868,86.397 236.112,86.689 236.56,86.689C236.848,86.689 237.056,86.557 237.184,86.293L240.004,86.293C239.908,86.773 239.706,87.203 239.398,87.583C239.09,87.963 238.702,88.263 238.234,88.483C237.766,88.703 237.252,88.813 236.692,88.813C236.02,88.813 235.422,88.673 234.898,88.393C234.374,88.113 233.966,87.711 233.674,87.187C233.382,86.663 233.236,86.049 233.236,85.345C233.236,84.641 233.382,84.027 233.674,83.503C233.966,82.979 234.374,82.577 234.898,82.297C235.422,82.017 236.02,81.877 236.692,81.877C237.364,81.877 237.962,82.015 238.486,82.291C239.01,82.567 239.418,82.961 239.71,83.473C240.002,83.985 240.148,84.589 240.148,85.285ZM237.448,84.649C237.448,84.425 237.376,84.255 237.232,84.139C237.088,84.023 236.908,83.965 236.692,83.965C236.22,83.965 235.944,84.193 235.864,84.649L237.448,84.649Z" style="fill:rgb(251,251,251);fill-rule:nonzero;"/>
            </g>
        </g>
        <g transform="matrix(0.0084115,0,0,0.0084115,276.623,153.248)">
            <g transform="matrix(1,0,0,1,-1.81899e-12,-16.1413)">
                <path d="M951.914,716.534C952.428,716.588 952.962,716.641 953.514,716.693C955.675,716.87 958.114,717.069 960.773,717.288C963.434,717.476 966.315,717.645 969.367,717.783C972.415,717.977 975.641,717.967 978.964,718.117C982.295,718.146 985.737,718.176 989.231,718.206C992.73,718.149 996.281,718.224 999.835,718.056C1003.39,717.947 1006.94,717.947 1010.44,717.724C1013.93,717.499 1017.38,717.498 1020.7,717.228C1024.03,717.029 1027.25,716.837 1030.31,716.654C1033.36,716.42 1036.24,716.199 1038.91,715.995C1044.25,715.655 1048.69,715.217 1051.81,714.973C1051.93,714.963 1052.04,714.955 1052.17,714.944C1108.63,693.007 1164.24,663.574 1202.49,615.682C1229.57,581.774 1246.01,536.809 1244.22,493.674C1242.82,460.009 1214.54,434.073 1181.92,436.837C1145.71,439.906 1048.73,462.586 1000,483.155C951.267,462.586 854.291,439.906 818.08,436.837C785.455,434.073 757.183,460.009 755.783,493.674C753.991,536.809 770.429,581.774 797.512,615.682C836.686,664.729 894.059,694.432 951.914,716.534Z" style="fill:rgb(251,251,251);fill-rule:nonzero;"/>
            </g>
            <g transform="matrix(0.24,0,0,0.208725,0.000193287,93.3254)">
                <path d="M5737.21,4444.58C5585.04,4139.43 5364.58,3875.57 5126.38,3635.77C4890.17,3397.99 4634.46,3180.77 4362.83,2987.19C4365.45,2986.19 4368.08,2985.13 4370.71,2984.12C4367.29,2984.78 4363.67,2985.48 4359.79,2986.22C4350.87,2988.06 4340.79,2989.82 4329.71,2991.35C4318.62,2992.95 4306.67,2994.7 4293.96,2996.53C4281.21,2997.9 4267.75,2999.34 4253.88,3000.83C4239.96,3002.32 4225.5,3003.16 4210.83,3004.1C4196.17,3005.2 4181.21,3005.4 4166.29,3005.98C4151.36,3006.52 4136.4,3006.05 4121.7,3006.12C4106.99,3005.99 4092.51,3005.12 4078.52,3004.53C4064.54,3003.55 4051.02,3002.72 4038.25,3001.22C4025.46,3000.03 4013.42,2998.37 4002.32,2996.7C3991.23,2995.13 3981.12,2993.19 3972.2,2991.38C3970.19,2990.97 3968.26,2990.57 3966.37,2990.17C3696.28,3183 3441.96,3399.2 3206.95,3635.77C2968.73,3875.57 2748.3,4139.43 2596.14,4444.58C2443.99,4749.71 2363.31,5100.17 2413.93,5439.17C2464.55,5778.17 2657.59,6101.71 2952.03,6262.25C3241.55,6420.17 3823.29,6526.17 4166.67,6512.92C4510.04,6526.17 5091.79,6420.17 5381.29,6262.25C5675.75,6101.71 5868.79,5778.17 5919.42,5439.17C5970.04,5100.17 5889.33,4749.71 5737.21,4444.58ZM4636.58,4882C4582.62,4804.08 4488.88,4737 4355.17,4680.83L4271,4645.33L4194.75,4613.17C4141.14,4590.21 4097.15,4569.96 4062.36,4552.29C4030.04,4535.92 4005.62,4521.75 3989.53,4509.92C3956.12,4485.42 3930.04,4454.92 3911.33,4418.54C3892.6,4382.12 3883.25,4341.79 3883.25,4297.46C3883.25,4225.5 3909.33,4166.52 3961.47,4120.63C3989.45,4096 4023.21,4078.2 4062.36,4066.78C4096.15,4056.94 4133.91,4051.78 4176.04,4051.78C4206.42,4051.78 4238.08,4054.36 4271,4059.43C4305.67,4064.76 4341.75,4072.87 4379.25,4083.83C4452.29,4105.2 4506.67,4127.36 4542.33,4150.3L4621.21,3943.78C4550.5,3891.59 4433.67,3861.27 4271,3852.66L4271,3726.82C4271,3669.21 4224.29,3622.5 4166.67,3622.5C4109.05,3622.5 4062.36,3669.21 4062.36,3726.82L4062.36,3856.89C3947.78,3872 3850.6,3912.36 3770.96,3978.2C3667.55,4063.65 3615.87,4171.29 3615.87,4301.04C3615.87,4407.83 3642.39,4499.25 3695.43,4575.21C3748.43,4651.17 3841.81,4716.83 3975.49,4772.21L4062.36,4808.17L4133.25,4837.5C4186.75,4859.92 4232.67,4881.67 4271,4902.75C4334.12,4937.58 4376.71,4970.58 4398.62,5001.88C4433.83,5052.12 4451.42,5106.5 4451.42,5165.08C4451.42,5243.42 4419.79,5307.92 4356.5,5358.54C4331.29,5378.71 4302.67,5394.67 4271,5406.79C4223.08,5425.12 4167.92,5434.5 4105.18,5434.5C4091.35,5434.5 4077.05,5433.83 4062.36,5432.62C4014.55,5428.71 3962.23,5418.5 3905.3,5401.83C3830.89,5380.08 3768.72,5353 3718.83,5320.54L3621.22,5538.92C3743.25,5611.17 3890.33,5647.46 4062.36,5648L4062.36,5771.33C4062.36,5828.92 4109.05,5875.62 4166.67,5875.62C4224.29,5875.62 4271,5828.92 4271,5771.33L4271,5629.17C4376.46,5607.88 4466.25,5568.71 4540.33,5511.62C4658.42,5420.67 4717.46,5309.88 4717.46,5179.29C4717.46,5059.04 4690.5,4959.96 4636.58,4882Z" style="fill:rgb(251,251,251);"/>
            </g>
        </g>
    </g>
</svg>
